<svg xmlns="http://www.w3.org/2000/svg" shape-rendering="crispEdges">
  <!-- <rect style="fill: rgb(241,243,248);" width="100%" height="100%"/>
  <line x1="100%" y1="0%" x2="100%" y2="100%" style="stroke:rgb(142,156,175); stroke-width:1" />
  <line x1="0" y1="1" x2="17" y2="1" style="stroke:rgb(142,156,175); stroke-width:1" />
  <line x1="13" y1="11" x2="17" y2="11" style="stroke:rgb(142,156,175); stroke-width:1" />
  <line x1="13" y1="21" x2="17" y2="21" style="stroke:rgb(142,156,175); stroke-width:1" />
  <line x1="13" y1="31" x2="17" y2="31" style="stroke:rgb(142,156,175); stroke-width:1" />
  <line x1="13" y1="41" x2="17" y2="41" style="stroke:rgb(142,156,175); stroke-width:1" />
  <line x1="13" y1="51" x2="17" y2="51" style="stroke:rgb(142,156,175); stroke-width:1" />
  <line x1="13" y1="61" x2="17" y2="61" style="stroke:rgb(142,156,175); stroke-width:1" />
  <line x1="13" y1="71" x2="17" y2="71" style="stroke:rgb(142,156,175); stroke-width:1" />
  <line x1="13" y1="81" x2="17" y2="81" style="stroke:rgb(142,156,175); stroke-width:1" />
  <line x1="13" y1="91" x2="17" y2="91" style="stroke:rgb(142,156,175); stroke-width:1" /> -->

  <rect style="fill: rgb(241,243,248);" width="100%" height="100%" />
  <line x1="100%" y1="0%" x2="100%" y2="100%" style="stroke:rgb(142,156,175); stroke-width:1" />
  <line x1="0%" y1="1%" x2="100%" y2="1%" style="stroke:rgb(142,156,175); stroke-width:1%" />
  <line x1="70%" y1="11%" x2="100%" y2="11%" style="stroke:rgb(142,156,175); stroke-width:1%" />
  <line x1="70%" y1="21%" x2="100%" y2="21%" style="stroke:rgb(142,156,175); stroke-width:1%" />
  <line x1="70%" y1="31%" x2="100%" y2="31%" style="stroke:rgb(142,156,175); stroke-width:1%" />
  <line x1="70%" y1="41%" x2="100%" y2="41%" style="stroke:rgb(142,156,175); stroke-width:1%" />
  <line x1="70%" y1="51%" x2="100%" y2="51%" style="stroke:rgb(142,156,175); stroke-width:1%" />
  <line x1="70%" y1="61%" x2="100%" y2="61%" style="stroke:rgb(142,156,175); stroke-width:1%" />
  <line x1="70%" y1="71%" x2="100%" y2="71%" style="stroke:rgb(142,156,175); stroke-width:1%" />
  <line x1="70%" y1="81%" x2="100%" y2="81%" style="stroke:rgb(142,156,175); stroke-width:1%" />
  <line x1="70%" y1="91%" x2="100%" y2="91%" style="stroke:rgb(142,156,175); stroke-width:1%" />
</svg>